<?xml version="1.0" encoding="UTF-8" standalone="no"?>
<svg viewBox="0 0 744.09447 1052.362179" xmlns="http://www.w3.org/2000/svg">
<defs>
<linearGradient gradientTransform="matrix(-1.01265,1.01265,-1.01265,-1.01265,1202.8556,408.75428)" gradientUnits="userSpaceOnUse" id="linearGradient2865" x1="426.07767" x2="295.25778" y1="576.95093" y2="418.90198">
<stop offset="0" stop-color="#0f0"/>
<stop offset=".48673" stop-color="#ff0"/>
<stop offset=".74336" stop-color="#ff7f00"/>
<stop offset="1" stop-color="#f00"/>
</linearGradient>
<linearGradient gradientUnits="userSpaceOnUse" id="linearGradient2868" x1="296.82284" x2="400.79623" y1="-41.76408" y2="261.18759">
<stop offset="0" stop-color="#fff"/>
<stop offset="1" stop-color="#fff" stop-opacity="0"/>
</linearGradient>
<linearGradient gradientUnits="userSpaceOnUse" id="linearGradient2894" x1="304.21106" x2="404.9531" y1="74.86308" y2="320.69717">
<stop offset="0" stop-color="#333"/>
<stop offset="1" stop-color="#ced1d0"/>
</linearGradient>
<linearGradient gradientUnits="userSpaceOnUse" id="linearGradient2864" x1="424.8298" x2="277.9994" y1="319.09652" y2="10.4783">
<stop offset="0"/>
<stop offset="1" stop-color="#edede9"/>
</linearGradient>
</defs>
<path d="m357.13093,64.49786c-33.5113.0086-66.99843,12.7488-92.4867,38.23704-50.97657,50.9766-50.97657,133.99688 0,184.97346s133.99685,50.97657 184.9734,0 51.02476-134.04063.046-185.01946c-25.48949-25.48941-59.02148-38.19943-92.53278-38.19104z" fill="none" stroke="url(#linearGradient2864)" stroke-width="8.44941"/>
<path d="m442.18732,280.27967c46.92047-46.92045 46.95203-123.21593.0317-170.13638s-123.21593-46.88889-170.13638.0315-46.92045,123.18437 0,170.10482 123.18437,46.92045 170.10482,0z" fill="none" stroke="url(#linearGradient2894)" stroke-width="13.8871"/>
<path d="m442.18732,280.27967c46.92047-46.92045 46.95203-123.21593.0317-170.13638s-123.21593-46.88889-170.13638.0315-46.92045,123.18437 0,170.10482 123.18437,46.92045 170.10482,0z" fill="#4d4d4d"/>
<g transform="rotate(175 358 195) matrix(.95871,.52203,.52203,-.95871,86.01486,292.70716)">
<path d="m130.905,198.203 48.187-11.995c0,0 5.084,5.068 5.347,7.014s-3.244,8.558-3.244,8.558l-49.238,4.209-49.238,4.208 48.186-11.994z"/>
</g>
<g fill="#fff" transform="rotate(175 358 195) matrix(.95871,.52203,.52203,-.95871,86.01486,289.84295)">
<g fill="#fff">
<g fill="#fff">
<g fill="#fff">
<path d="m130.905,198.203 48.187-11.995c0,0 5.084,5.068 5.347,7.014s-3.244,8.558-3.244,8.558l-49.238,4.209-49.238,4.208 48.186-11.994z" fill="#fff"/>
</g>
</g>
</g>
</g>
<path d="m313.03271,523.19049a1.34109,1.34109 0 1,1 -2.68218,0 1.34109,1.34109 0 1,1 2.68218,0z" fill="#666" transform="matrix(2.23378,0,0,2.23378,-339.07003,-973.5121)"/>
<path d="m433.47813,269.05192-2.51723,2.51722-8.39075-8.39075 2.51722-2.51723 8.39076,8.39076zm26.68212-48.05741-.92139,3.43861-11.46198-3.07123 .92137-3.43861 11.462,3.07123zm-.92132-54.95998 .92136,3.4386-11.46198,3.07123-.92137-3.4386 11.46199-3.07123zm-28.27795-47.13615 2.51722,2.51722-8.39076,8.39076-2.51722-2.51722 8.39076-8.39076zm-147.63634,152.67065-2.51722-2.51722 8.39076-8.39075 2.51723,2.51722-8.39077,8.39075zm-28.27788-47.136-.92137-3.43859 11.46198-3.07123 .92137,3.43859-11.46198,3.07123zm-.9214-54.95996 .92138-3.4386 11.46198,3.07122-.92138,3.43859-11.46198-3.07121zm26.68207-48.05749 2.51723-2.51723 8.39075,8.39075-2.51723,2.51722-8.39075-8.39074zm47.13609-28.27792 3.43859-.92137 3.07123,11.46198-3.43859.92137-3.07123-11.46198zm54.96001-.92137 3.43859.92136-3.07123,11.46198-3.4386-.92137 3.07124-11.46197z" fill="#fff"/><text fill="#fff" font-family="Arial" font-size="10.24048" font-weight="bold" x="339.8345" xml:space="preserve" y="307.91101">
        <tspan x="339.8345" y="307.91101">SPEED</tspan>
      </text><text fill="#fff" font-family="Arial" font-size="10.24048" font-weight="bold" x="296.49472" xml:space="preserve" y="279.41608">
        <tspan x="296.49472" y="279.41608">MIN</tspan>
      </text><text fill="#fff" font-family="Arial" font-size="10.24048" font-weight="bold" x="394.4957" xml:space="preserve" y="279.41608">
        <tspan x="394.4957" y="279.41608">MAX</tspan>
      </text>
<path d="m441.73837,106.77875c-45.42615-45.62587-119.29182-45.59517-164.71799.0306-73.82773,76.13904 9.63366,89.64637 83.11816,94.84562 80.88103-7.17526 146.07635-23.85237 81.59983-94.87619v-2e-005-5e-005z" fill="url(#linearGradient2868)" opacity=".47331"/>
<path d="m357.42339,73.94537c-30.8879.0079-61.7755,11.78616-85.29964,35.31029-47.04827,47.04826-47.04827,123.50625 0,170.55452l6.66823-6.66823c-43.36433-43.36432-43.36433-113.85374 0-157.21806s113.85374-43.36433 157.21807,0 43.36434,113.85372 0,157.21806c-1.84255,1.84255-3.74736,3.59491-5.68366,5.28088l6.2207,7.11576c2.11347-1.83779 4.15076-3.74798 6.13119-5.72841 47.04826-47.04827 47.09302-123.55101.0447-170.59927-23.52416-23.52413-54.41176-35.27345-85.29966-35.26554z" fill="url(#linearGradient2865)"/>
</svg>
